<svg xmlns="http://www.w3.org/2000/svg" width="1200" height="900" viewBox="0 0 1200 900" role="img" aria-label="采集器条形码演示照片">
  <rect width="1200" height="900" fill="#101820"/>
  <rect x="260" y="110" width="680" height="660" rx="18" fill="#f6f8fa"/>
  <text x="600" y="210" text-anchor="middle" font-family="Microsoft YaHei, Arial, sans-serif" font-size="44" font-weight="900" fill="#172331">采集器条形码</text>
  <rect x="380" y="290" width="440" height="280" rx="12" fill="#ffffff" stroke="#9aa7b5" stroke-width="5"/>
  <g fill="#111820">
    <rect x="420" y="330" width="10" height="200"/><rect x="446" y="330" width="18" height="200"/><rect x="478" y="330" width="8" height="200"/>
    <rect x="505" y="330" width="24" height="200"/><rect x="548" y="330" width="12" height="200"/><rect x="584" y="330" width="30" height="200"/>
    <rect x="634" y="330" width="9" height="200"/><rect x="663" y="330" width="22" height="200"/><rect x="708" y="330" width="12" height="200"/>
    <rect x="745" y="330" width="28" height="200"/>
  </g>
  <text x="600" y="640" text-anchor="middle" font-family="Consolas, monospace" font-size="38" font-weight="800" fill="#0f6f8f">collector-01</text>
  <text x="600" y="850" text-anchor="middle" font-family="Microsoft YaHei, Arial, sans-serif" font-size="26" fill="#95a0ae">演示图像 URL 引用</text>
</svg>
